<?xml version="1.0" encoding="utf-8"?>
<!-- Generator: Adobe Illustrator 19.1.0, SVG Export Plug-In . SVG Version: 6.00 Build 0)  -->
<!DOCTYPE svg PUBLIC "-//W3C//DTD SVG 1.1//EN" "http://www.w3.org/Graphics/SVG/1.1/DTD/svg11.dtd">
<svg version="1.1" xmlns="http://www.w3.org/2000/svg" xmlns:xlink="http://www.w3.org/1999/xlink" x="0px" y="0px"
	 viewBox="0 0 24 24" style="enable-background:new 0 0 24 24;" xml:space="preserve">
<style type="text/css">
	.st0{fill:#FFFFFF;}
	.st1{fill:#ED0061;fill-opacity:0.2;}
	.st2{display:none;}
	.st3{display:inline;}
	.st4{fill:#231F20;}
</style>
<g id="frame">
	<g>
		<rect x="0" y="-36" class="st0" width="24" height="24"/>
	</g>
</g>
<g id="keylines">
	<path id="circle" class="st1" d="M12-14L12-14C6.5-14,2-18.5,2-24v0c0-5.5,4.5-10,10-10h0c5.5,0,10,4.5,10,10v0
		C22-18.5,17.5-14,12-14z"/>
</g>
<g id="src_alt" class="st2">
	<g class="st3">
		<g>
			<path class="st4" d="M6.4-26.1l-4.3,0.6C2.1-25,2-24.5,2-24s0.1,1,0.1,1.5l4.3,0.6V-26.1z M20.1-29.9c-0.6-0.8-1.3-1.6-2.2-2.2
				l-3.4,2.6l3,3L20.1-29.9z M12-34c-0.5,0-1,0.1-1.5,0.1l-0.6,4.3h4.2l-0.6-4.3C13-33.9,12.5-34,12-34z M21.9-25.5l-4.3-0.6v4.2
				l4.3-0.6c0.1-0.5,0.1-1,0.1-1.5S21.9-25,21.9-25.5z M10.5-14.1c0.5,0.1,1,0.1,1.5,0.1s1-0.1,1.5-0.1l0.6-4.3H9.9L10.5-14.1z
				 M3.9-29.9l2.6,3.4l3-3l-3.4-2.6C5.3-31.5,4.5-30.7,3.9-29.9z M14.5-18.6l3.4,2.6c0.8-0.6,1.6-1.3,2.2-2.2l-2.6-3.4L14.5-18.6z
				 M3.9-18.1c0.6,0.8,1.3,1.6,2.2,2.2l3.4-2.6l-3-3L3.9-18.1z"/>
		</g>
	</g>
	<g class="st3">
		<path class="st4" d="M12-27.5c1.9,0,3.5,1.6,3.5,3.5s-1.6,3.5-3.5,3.5S8.5-22.1,8.5-24S10.1-27.5,12-27.5 M12-31c-3.9,0-7,3.1-7,7
			s3.1,7,7,7s7-3.1,7-7S15.9-31,12-31L12-31z"/>
	</g>
</g>
<g id="src">
	<g>
		<g>
			<path d="M4-18.2L6.2-16l3.3-2.6l-3-3L4-18.2z M4-29.8l2.6,3.3l3-3L6.2-32L4-29.8z M6.4-26.1l-4.3,0.6v3.1l4.3,0.6V-26.1z
				 M17.6-26.1v4.2l4.3-0.6v-3.1L17.6-26.1z M10.5-33.9l-0.6,4.3h4.2l-0.6-4.3H10.5z M20-29.8L17.8-32l-3.3,2.6l3,3L20-29.8z
				 M14.5-18.6l3.3,2.6l2.2-2.2l-2.6-3.3L14.5-18.6z M10.5-14.1h3.1l0.6-4.3H9.9L10.5-14.1z"/>
		</g>
	</g>
	<g>
		<path d="M12-27.2c1.8,0,3.2,1.5,3.2,3.2s-1.5,3.2-3.2,3.2S8.8-22.2,8.8-24S10.2-27.2,12-27.2 M12-31c-3.9,0-7,3.1-7,7s3.1,7,7,7
			s7-3.1,7-7S15.9-31,12-31L12-31z"/>
	</g>
</g>
<g id="exports">
	<path d="M22,13.5v-3.1l-3.2-0.4c-0.1-0.5-0.4-1-0.6-1.4L20,6.2L17.8,4l-2.4,1.9c-0.4-0.2-0.9-0.5-1.4-0.7L13.5,2h-3.1l-0.4,3.2
		c-0.5,0.1-1,0.4-1.4,0.6L6.2,4L4,6.2l1.9,2.4c-0.2,0.4-0.5,0.9-0.7,1.4L2,10.5v3.1l3.2,0.4c0.1,0.5,0.4,1,0.6,1.4L4,17.8L6.2,20
		l2.4-1.9c0.4,0.2,0.9,0.5,1.4,0.7l0.4,3.2h3.1l0.4-3.2c0.5-0.1,1-0.4,1.4-0.6l2.4,1.9l2.2-2.2l-1.9-2.4c0.2-0.4,0.5-0.9,0.7-1.4
		L22,13.5z M12,15.2c-1.8,0-3.2-1.5-3.2-3.2s1.5-3.2,3.2-3.2s3.2,1.5,3.2,3.2S13.8,15.2,12,15.2z"/>
</g>
</svg>
