<?xml version="1.0" encoding="utf-8"?>
<!-- Generator: Adobe Illustrator 18.1.0, SVG Export Plug-In . SVG Version: 6.00 Build 0)  -->
<!DOCTYPE svg PUBLIC "-//W3C//DTD SVG 1.1//EN" "http://www.w3.org/Graphics/SVG/1.1/DTD/svg11.dtd">
<svg version="1.1" xmlns="http://www.w3.org/2000/svg" xmlns:xlink="http://www.w3.org/1999/xlink" x="0px" y="0px"
	 viewBox="0 0 24 24" enable-background="new 0 0 24 24" xml:space="preserve">
<g id="frame">
	<g>
		<rect y="-36" fill="#FFFFFF" width="24" height="24"/>
	</g>
</g>
<g id="keylines">
	<path id="rect_v" fill="#ED0061" fill-opacity="0.2" d="M4-16v-16c0-1.1,0.9-2,2-2h12c1.1,0,2,0.9,2,2v16c0,1.1-0.9,2-2,2H6
		C4.9-14,4-14.9,4-16z"/>
</g>
<g id="src">
	<g display="none">
		
			<rect x="10.1" y="-31.3" transform="matrix(0.7071 0.7071 -0.7071 0.7071 -17.234 -18.9792)" display="inline" width="8.5" height="2"/>
		
			<rect x="5.5" y="-31.3" transform="matrix(0.7071 -0.7071 0.7071 0.7071 24.2635 -2.0086)" display="inline" width="8.5" height="2"/>
		<rect x="11" y="-29.3" display="inline" width="2" height="9.3"/>
		<polygon display="inline" points="11,-23.7 11,-33 12,-34 13,-33 13,-23.7 		"/>
	</g>
	<path d="M18-26v8H6v-8H4v8c0,1.1,0.9,2,2,2h12c1.1,0,2-0.9,2-2v-8H18z"/>
	<rect x="10.3" y="-33.8" transform="matrix(0.7071 0.7071 -0.7071 0.7071 -19.1482 -19.3578)" width="7.1" height="2"/>
	<rect x="6.7" y="-33.8" transform="matrix(0.7071 -0.7071 0.7071 0.7071 26.1777 -2.3873)" width="7.1" height="2"/>
	<polygon points="11,-22 11,-35 12,-36 13,-35 13,-22 	"/>
	<g>
		<path d="M18-28h-3v2h3v8h2v-8C20-27.1,19.1-28,18-28z"/>
		<path d="M9-28H6c-1.1,0-2,0.9-2,2v8h2v-8h3V-28z"/>
	</g>
</g>
<g id="exports">
	<polygon points="7.8,9.1 7.8,9.1 11,5.8 11,17 13,17 13,5.8 16.2,9.1 16.2,9.1 16.6,9.4 18,8 12,2 6,8 7.4,9.4 	"/>
	<path d="M18,11h-3v2h3v7H6v-7h3v-2H6c-1.1,0-2,0.9-2,2v7c0,1.1,0.9,2,2,2h12c1.1,0,2-0.9,2-2v-7C20,11.9,19.1,11,18,11z"/>
</g>
</svg>
