<svg xmlns="http://www.w3.org/2000/svg"><symbol viewBox="0 0 24 24" id="shoppicon-address"><path d="M21 5H3c-1.1 0-2 .9-2 2v10c0 1.1.9 2 2 2h18c1.1 0 2-.9 2-2V7c0-1.1-.9-2-2-2zm0 12H3V7h18v10zM4 11h10v2H4zm0 3h6v2H4zm13-6h3v3h-3z"/></symbol><symbol viewBox="0 0 24 24" id="shoppicon-arrow-down"><path d="M18.6 11.6L13 17.2V3h-2v14.2l-5.6-5.6L4 13l8 8 8-8z"/></symbol><symbol viewBox="0 0 24 24" id="shoppicon-arrow-left"><path d="M21 11H6.8l5.6-5.6L11 4l-8 8 8 8 1.4-1.4L6.8 13H21z"/></symbol><symbol viewBox="0 0 24 24" id="shoppicon-arrow-right"><path d="M13 4l-1.4 1.4 5.6 5.6H3v2h14.2l-5.6 5.6L13 20l8-8z"/></symbol><symbol viewBox="0 0 24 24" id="shoppicon-arrow-up"><path d="M20 11l-8-8-8 8 1.4 1.4L11 6.8V21h2V6.8l5.6 5.6z"/></symbol><symbol viewBox="0 0 24 24" id="shoppicon-arrows-maximize"><path d="M9.6 13L5 17.6V13H3v8h8v-2H6.4l4.6-4.6zM13 3v2h4.6L13 9.6l1.4 1.4L19 6.4V11h2V3z"/></symbol><symbol viewBox="0 0 24 24" id="shoppicon-arrows-minimize"><path d="M3 13v2h4.6L3 19.6 4.4 21 9 16.4V21h2v-8zm18-8.6L19.6 3 15 7.6V3h-2v8h8V9h-4.6z"/></symbol><symbol viewBox="0 0 24 24" id="shoppicon-bag-add"><path d="M11 17h2v-3h3v-2h-3V9h-2v3H8v2h3zM10 4h4v3h2V5c0-1.7-1.3-3-3-3h-2C9.3 2 8 3.3 8 5v2h2V4zm10 14V7h-2v11.1l.2 1.9H5.8l.2-1.9V7H4v11l-.5 4h17z"/></symbol><symbol viewBox="0 0 24 24" id="shoppicon-bag"><path d="M20 18V7h-4V5c0-1.7-1.3-3-3-3h-2C9.3 2 8 3.3 8 5v2H4v11l-.5 4h17l-.5-4zM14 7h-4V4h4v3z"/></symbol><symbol viewBox="0 0 24 24" id="shoppicon-barred-circle-outline"><path d="M12 2C6.5 2 2 6.5 2 12s4.5 10 10 10 10-4.5 10-10S17.5 2 12 2zM4 12c0-4.4 3.6-8 8-8 1.9 0 3.6.6 4.9 1.7L5.7 16.9C4.6 15.5 4 13.8 4 12zm8 8c-1.9 0-3.6-.6-4.9-1.7L18.3 7.1c1.1 1.3 1.7 3 1.7 4.9 0 4.4-3.6 8-8 8z"/></symbol><symbol viewBox="0 0 24 24" id="shoppicon-basket-add"><path d="M20 8.7V9l-1.7 10H5.7L4 9v-.3L2 9l1.7 10.3c.2 1 1 1.7 2 1.7h12.6c1 0 1.8-.7 2-1.7L22 9l-2-.3zM13 17v-3h3v-2h-3V9h-2v3H8v2h3v3zM8 5h8v4h2V5c0-1.1-.9-2-2-2H8c-1.1 0-2 .9-2 2v4h2V5z"/></symbol><symbol viewBox="0 0 24 24" id="shoppicon-basket"><path d="M18 9V5c0-1.1-.9-2-2-2H8c-1.1 0-2 .9-2 2v4H2l1.7 10.3c.2 1 1 1.7 2 1.7h12.6c1 0 1.8-.7 2-1.7L22 9h-4zM8 5h8v4H8V5zm1 13H7v-4h2v4zm4 0h-2v-4h2v4zm4 0h-2v-4h2v4z"/></symbol><symbol viewBox="0 0 24 24" id="shoppicon-bill"><path d="M18 3l-2-1-2 1-2-1-2 1-2-1-2 1-2-1v20h16V2l-2 1zm0 17H6V5.2L8 4l2 1.2L12 4l2 1.2L16 4l2 1.2V20zM8 7h8v2H8zm0 4h8v2H8zm3 4h5v3h-5z"/></symbol><symbol viewBox="0 0 24 24" id="shoppicon-book-hardcover"><path d="M16.5 4c-1.7 0-3.2.5-4.5 1.3C10.7 4.5 9.2 4 7.5 4c-2.1 0-4 .8-5.5 2v12l.1 1c.1.5.6.9 1.1.9L10 19c0 .5.5 1 1 1h2c.5 0 1-.4 1-1l6.8.8c.5.1 1-.3 1.1-.9l.1-1V6c-1.5-1.2-3.4-2-5.5-2zM20 7v9.8c-1.1-.4-2.3-.6-3.5-.6s-2.4.2-3.5.6V7c1-.7 2.3-1 3.5-1 1.2 0 2.5.4 3.5 1zM4 7c1-.7 2.3-1 3.5-1 1.2 0 2.5.4 3.5 1v9.8c-1.1-.4-2.3-.6-3.5-.6s-2.4.3-3.5.6V7z"/></symbol><symbol viewBox="0 0 24 24" id="shoppicon-book"><path d="M16.5 4c-1.7 0-3.2.5-4.5 1.3C10.7 4.5 9.2 4 7.5 4c-2.1 0-4 .8-5.5 2v13l1.2 1.4c1.3-.7 2.7-1.2 4.3-1.2 1.2 0 2.4.3 3.5.8h2c1.1-.5 2.3-.8 3.5-.8 1.6 0 3 .4 4.3 1.2L22 19V6c-1.5-1.2-3.4-2-5.5-2zM20 7v10.8c-1.1-.4-2.3-.6-3.5-.6s-2.4.2-3.5.6V7c1-.7 2.3-1 3.5-1 1.2 0 2.5.4 3.5 1zM4 7c1-.7 2.3-1 3.5-1 1.2 0 2.5.4 3.5 1v10.8c-1.1-.4-2.3-.6-3.5-.6s-2.4.3-3.5.6V7z"/></symbol><symbol viewBox="0 0 24 24" id="shoppicon-bookmark"><path d="M13 2H4v.1c1.7.4 3 2 3 3.9v16l5-4 5 4V6c0-2.2-1.8-4-4-4z"/></symbol><symbol viewBox="0 0 24 24" id="shoppicon-calendar"><path d="M17 12h-5v5h5v-5zM16 1v2H8V1H6v2H5c-1.1 0-2 .9-2 2v14c0 1.1.9 2 2 2h14c1.1 0 2-.9 2-2V5c0-1.1-.9-2-2-2h-1V1h-2zm3 18H5V8h14v11z"/></symbol><symbol viewBox="0 0 24 24" id="shoppicon-caret-circle-down"><path d="M12 22c5.5 0 10-4.5 10-10S17.5 2 12 2 2 6.5 2 12s4.5 10 10 10zm5-12l-5 6-5-6h10z"/></symbol><symbol viewBox="0 0 24 24" id="shoppicon-caret-circle-left"><path d="M2 12c0 5.5 4.5 10 10 10s10-4.5 10-10S17.5 2 12 2 2 6.5 2 12zm12 5l-6-5 6-5v10z"/></symbol><symbol viewBox="0 0 24 24" id="shoppicon-caret-circle-outline-down"><path d="M12 2C6.5 2 2 6.5 2 12s4.5 10 10 10 10-4.5 10-10S17.5 2 12 2zm0 18c-4.4 0-8-3.6-8-8s3.6-8 8-8 8 3.6 8 8-3.6 8-8 8zm0-4l5-6H7z"/></symbol><symbol viewBox="0 0 24 24" id="shoppicon-caret-circle-outline-left"><path d="M12 2C6.5 2 2 6.5 2 12s4.5 10 10 10 10-4.5 10-10S17.5 2 12 2zm0 18c-4.4 0-8-3.6-8-8s3.6-8 8-8 8 3.6 8 8-3.6 8-8 8zm2-3V7l-6 5z"/></symbol><symbol viewBox="0 0 24 24" id="shoppicon-caret-circle-outline-right"><path d="M10 17l6-5-6-5zm2-15C6.5 2 2 6.5 2 12s4.5 10 10 10 10-4.5 10-10S17.5 2 12 2zm0 18c-4.4 0-8-3.6-8-8s3.6-8 8-8 8 3.6 8 8-3.6 8-8 8z"/></symbol><symbol viewBox="0 0 24 24" id="shoppicon-caret-circle-outline-up"><path d="M12 2C6.5 2 2 6.5 2 12s4.5 10 10 10 10-4.5 10-10S17.5 2 12 2zm0 18c-4.4 0-8-3.6-8-8s3.6-8 8-8 8 3.6 8 8-3.6 8-8 8zm-5-6h10l-5-6z"/></symbol><symbol viewBox="0 0 24 24" id="shoppicon-caret-circle-right"><path d="M22 12c0-5.5-4.5-10-10-10S2 6.5 2 12s4.5 10 10 10 10-4.5 10-10zM10 7l6 5-6 5V7z"/></symbol><symbol viewBox="0 0 24 24" id="shoppicon-caret-circle-up"><path d="M12 2C6.5 2 2 6.5 2 12s4.5 10 10 10 10-4.5 10-10S17.5 2 12 2zM7 14l5-6 5 6H7z"/></symbol><symbol viewBox="0 0 24 24" id="shoppicon-caret-down"><path d="M7 10l5 5 5-5z"/></symbol><symbol viewBox="0 0 24 24" id="shoppicon-caret-left"><path d="M14 7l-5 5 5 5z"/></symbol><symbol viewBox="0 0 24 24" id="shoppicon-caret-right"><path d="M10 17l5-5-5-5z"/></symbol><symbol viewBox="0 0 24 24" id="shoppicon-caret-up"><path d="M17 14l-5-5-5 5z"/></symbol><symbol viewBox="0 0 24 24" id="shoppicon-carets-collapse-horizontal"><path d="M6 16l4-4-4-4zm8-4l4 4V8z"/></symbol><symbol viewBox="0 0 24 24" id="shoppicon-carets-collapse-vertical"><path d="M8 18h8l-4-4zm8-12H8l4 4z"/></symbol><symbol viewBox="0 0 24 24" id="shoppicon-carets-expand-horizontal"><path d="M14 8v8l4-4zm-4 8V8l-4 4z"/></symbol><symbol viewBox="0 0 24 24" id="shoppicon-carets-expand-vertical"><path d="M12 6l-4 4h8zm0 12l4-4H8z"/></symbol><symbol viewBox="0 0 24 24" id="shoppicon-cart-add"><path d="M19.1 5.5L16.9 14H7.1L5.6 8 4.3 3H1v2h1.7l2.4 9.5c.2.9 1 1.5 1.9 1.5h9.9c.9 0 1.7-.6 1.9-1.5L21 6l-1.9-.5zM11 11h2V8h3V6h-3V3h-2v3H8v2h3zm-3 6.5c-1.1 0-2 .9-2 2s.9 2 2 2 2-.9 2-2-.9-2-2-2zm8 0c-1.1 0-2 .9-2 2s.9 2 2 2 2-.9 2-2-.9-2-2-2z"/></symbol><symbol viewBox="0 0 24 24" id="shoppicon-cart-alt-add"><path d="M7 18c-1.1 0-2 .9-2 2s.9 2 2 2 2-.9 2-2-.9-2-2-2zm10 0c-1.1 0-2 .9-2 2s.9 2 2 2 2-.9 2-2-.9-2-2-2zm-6-9h2V6h3V4h-3V1h-2v3H8v2h3zm-3.1 4h7.8c.8 0 1.5-.5 1.8-1.2L21 4l-1.8-.8-3.5 7.8H8.3L5.2 4l-.9-2H1v2h2l3.4 7.6-1.2 2.6C4.6 15.5 5.6 17 7 17h12v-2H7l.9-2z"/></symbol><symbol viewBox="0 0 24 24" id="shoppicon-cart-alt"><path d="M7 18c-1.1 0-2 .9-2 2s.9 2 2 2 2-.9 2-2-.9-2-2-2zm10 0c-1.1 0-2 .9-2 2s.9 2 2 2 2-.9 2-2-.9-2-2-2zm-9.1-5h7.8c.8 0 1.5-.5 1.8-1.2L21 4H5.2l-.9-2H1v2h2l3.4 7.6-1.2 2.6C4.6 15.5 5.6 17 7 17h12v-2H7l.9-2z"/></symbol><symbol viewBox="0 0 24 24" id="shoppicon-cart"><path d="M8 17.5c-1.1 0-2 .9-2 2s.9 2 2 2 2-.9 2-2-.9-2-2-2zm8 0c-1.1 0-2 .9-2 2s.9 2 2 2 2-.9 2-2-.9-2-2-2zM5.1 6l-.8-3H1v2h1.7l2.4 9.5c.2.9 1 1.5 1.9 1.5h9.9c.9 0 1.7-.6 1.9-1.5L21 6H5.1z"/></symbol><symbol viewBox="0 0 24 24" id="shoppicon-categories"><path d="M4 5h2v2H4zm0 4h2v2H4zm0 4h2v2H4zm0 4h2v2H4zm4 0h2v2H8zm4 0h2v2h-2zm4-1h4v4h-4zM8 9h2v2H8zm4 0h2v2h-2zm4-1h4v4h-4z"/></symbol><symbol viewBox="0 0 24 24" id="shoppicon-check-circle-outline"><path d="M9.9 13.8l-2.5-2.5L6 12.7l3.9 3.9 7.4-7.4-1.4-1.4zM12 2C6.5 2 2 6.5 2 12s4.5 10 10 10 10-4.5 10-10S17.5 2 12 2zm0 18c-4.4 0-8-3.6-8-8s3.6-8 8-8 8 3.6 8 8-3.6 8-8 8z"/></symbol><symbol viewBox="0 0 24 24" id="shoppicon-check-circle"><path d="M12 2C6.5 2 2 6.5 2 12s4.5 10 10 10 10-4.5 10-10S17.5 2 12 2zM9.9 16.6L6 12.7l1.4-1.4 2.5 2.5 6-6 1.4 1.4-7.4 7.4z"/></symbol><symbol viewBox="0 0 24 24" id="shoppicon-check-small"><path d="M16.6 7.4l-6.4 6.4-2.8-2.7L6 12.5l4.2 4.1L18 8.8z"/></symbol><symbol viewBox="0 0 24 24" id="shoppicon-check"><path d="M18.8 6l-9.1 9.2-4.3-4.3L4 12.3 9.7 18 20.2 7.4z"/></symbol><symbol viewBox="0 0 24 24" id="shoppicon-chevron-circle-down"><path d="M12 22c5.5 0 10-4.5 10-10S17.5 2 12 2 2 6.5 2 12s4.5 10 10 10zM8.4 9.6l3.6 3.6 3.6-3.6L17 11l-5 5-5-5 1.4-1.4z"/></symbol><symbol viewBox="0 0 24 24" id="shoppicon-chevron-circle-left"><path d="M2 12c0 5.5 4.5 10 10 10s10-4.5 10-10S17.5 2 12 2 2 6.5 2 12zm12.4-3.6L10.8 12l3.6 3.6L13 17l-5-5 5-5 1.4 1.4z"/></symbol><symbol viewBox="0 0 24 24" id="shoppicon-chevron-circle-outline-down"><path d="M12 2C6.5 2 2 6.5 2 12s4.5 10 10 10 10-4.5 10-10S17.5 2 12 2zm0 18c-4.4 0-8-3.6-8-8s3.6-8 8-8 8 3.6 8 8-3.6 8-8 8zm0-6.8L8.4 9.6 7 11l5 5 5-5-1.4-1.4z"/></symbol><symbol viewBox="0 0 24 24" id="shoppicon-chevron-circle-outline-left"><path d="M12 2C6.5 2 2 6.5 2 12s4.5 10 10 10 10-4.5 10-10S17.5 2 12 2zm0 18c-4.4 0-8-3.6-8-8s3.6-8 8-8 8 3.6 8 8-3.6 8-8 8zm1-13l-5 5 5 5 1.4-1.4-3.6-3.6 3.6-3.6z"/></symbol><symbol viewBox="0 0 24 24" id="shoppicon-chevron-circle-outline-right"><path d="M12 2C6.5 2 2 6.5 2 12s4.5 10 10 10 10-4.5 10-10S17.5 2 12 2zm0 18c-4.4 0-8-3.6-8-8s3.6-8 8-8 8 3.6 8 8-3.6 8-8 8zM11 7L9.6 8.4l3.6 3.6-3.6 3.6L11 17l5-5z"/></symbol><symbol viewBox="0 0 24 24" id="shoppicon-chevron-circle-outline-up"><path d="M17 13l-5-5-5 5 1.4 1.4 3.6-3.6 3.6 3.6zM12 2C6.5 2 2 6.5 2 12s4.5 10 10 10 10-4.5 10-10S17.5 2 12 2zm0 18c-4.4 0-8-3.6-8-8s3.6-8 8-8 8 3.6 8 8-3.6 8-8 8z"/></symbol><symbol viewBox="0 0 24 24" id="shoppicon-chevron-circle-right"><path d="M22 12c0-5.5-4.5-10-10-10S2 6.5 2 12s4.5 10 10 10 10-4.5 10-10zM9.6 15.6l3.6-3.6-3.6-3.6L11 7l5 5-5 5-1.4-1.4z"/></symbol><symbol viewBox="0 0 24 24" id="shoppicon-chevron-circle-up"><path d="M12 2C6.5 2 2 6.5 2 12s4.5 10 10 10 10-4.5 10-10S17.5 2 12 2zm3.6 12.4L12 10.8l-3.6 3.6L7 13l5-5 5 5-1.4 1.4z"/></symbol><symbol viewBox="0 0 24 24" id="shoppicon-chevron-double-left"><path d="M20.4 4.4L19 3l-9 9 9 9 1.4-1.4-7.6-7.6zm-7 0L12 3l-9 9 9 9 1.4-1.4L5.8 12z"/></symbol><symbol viewBox="0 0 24 24" id="shoppicon-chevron-double-right"><path d="M14 12L5 3 3.6 4.4l7.6 7.6-7.6 7.6L5 21zm7 0l-9-9-1.4 1.4 7.6 7.6-7.6 7.6L12 21z"/></symbol><symbol viewBox="0 0 24 24" id="shoppicon-chevron-down"><path d="M21 8l-1.4-1.4-7.6 7.6-7.6-7.6L3 8l9 9z"/></symbol><symbol viewBox="0 0 24 24" id="shoppicon-chevron-left"><path d="M17.4 4.4L16 3l-9 9 9 9 1.4-1.4L9.8 12z"/></symbol><symbol viewBox="0 0 24 24" id="shoppicon-chevron-right"><path d="M8 3L6.6 4.4l7.6 7.6-7.6 7.6L8 21l9-9z"/></symbol><symbol viewBox="0 0 24 24" id="shoppicon-chevron-small-double-left"><path d="M18.4 7.4L17 6l-6 6 6 6 1.4-1.4-4.6-4.6zm-6 0L11 6l-6 6 6 6 1.4-1.4L7.8 12z"/></symbol><symbol viewBox="0 0 24 24" id="shoppicon-chevron-small-double-right"><path d="M13 12L7 6 5.6 7.4l4.6 4.6-4.6 4.6L7 18zm6 0l-6-6-1.4 1.4 4.6 4.6-4.6 4.6L13 18z"/></symbol><symbol viewBox="0 0 24 24" id="shoppicon-chevron-small-down"><path d="M16.6 8.6L12 13.2 7.4 8.6 6 10l6 6 6-6z"/></symbol><symbol viewBox="0 0 24 24" id="shoppicon-chevron-small-left"><path d="M15.4 7.4L14 6l-6 6 6 6 1.4-1.4-4.6-4.6z"/></symbol><symbol viewBox="0 0 24 24" id="shoppicon-chevron-small-right"><path d="M16 12l-6-6-1.4 1.4 4.6 4.6-4.6 4.6L10 18z"/></symbol><symbol viewBox="0 0 24 24" id="shoppicon-chevron-small-up"><path d="M18 14l-6-6-6 6 1.4 1.4 4.6-4.6 4.6 4.6z"/></symbol><symbol viewBox="0 0 24 24" id="shoppicon-chevron-up"><path d="M21 16l-9-9-9 9 1.4 1.4L12 9.8l7.6 7.6z"/></symbol><symbol viewBox="0 0 24 24" id="shoppicon-chevrons-collapse-horizontal"><path d="M4 8.8L7.2 12 4 15.2l1.4 1.4L10 12 5.4 7.4zm16 0l-1.4-1.4L14 12l4.6 4.6 1.4-1.4-3.2-3.2z"/></symbol><symbol viewBox="0 0 24 24" id="shoppicon-chevrons-collapse-vertical"><path d="M16.6 5.4L15.2 4 12 7.2 8.8 4 7.4 5.4 12 10zM7.4 18.6L8.8 20l3.2-3.2 3.2 3.2 1.4-1.4L12 14z"/></symbol><symbol viewBox="0 0 24 24" id="shoppicon-chevrons-expand-horizontal"><path d="M7.6 7.4L3 12l4.6 4.6L9 15.2 5.8 12 9 8.8zm8.8 0L15 8.8l3.2 3.2-3.2 3.2 1.4 1.4L21 12z"/></symbol><symbol viewBox="0 0 24 24" id="shoppicon-chevrons-expand-vertical"><path d="M12 5.8L15.2 9l1.4-1.4L12 3 7.4 7.6 8.8 9zm3.2 9.2L12 18.2 8.8 15l-1.4 1.4L12 21l4.6-4.6z"/></symbol><symbol viewBox="0 0 24 24" id="shoppicon-clock"><path d="M12 4c4.4 0 8 3.6 8 8s-3.6 8-8 8-8-3.6-8-8 3.6-8 8-8m0-2C6.5 2 2 6.5 2 12s4.5 10 10 10 10-4.5 10-10S17.5 2 12 2zm.5 10.2V7H11v6l5.1 3.1.8-1.3z"/></symbol><symbol viewBox="0 0 24 24" id="shoppicon-cog"><path fill="#231F20" d="M22 13.5v-3.1l-3.2-.4c-.1-.5-.4-1-.6-1.4L20 6.2 17.8 4l-2.4 1.9c-.4-.2-.9-.5-1.4-.7L13.5 2h-3.1L10 5.2c-.5.1-1 .4-1.4.6L6.2 4 4 6.2l1.9 2.4c-.2.4-.5.9-.7 1.4l-3.2.5v3.1l3.2.4c.1.5.4 1 .6 1.4L4 17.8 6.2 20l2.4-1.9c.4.2.9.5 1.4.7l.4 3.2h3.1l.4-3.2c.5-.1 1-.4 1.4-.6l2.4 1.9 2.2-2.2-1.9-2.4c.2-.4.5-.9.7-1.4l3.3-.6zm-10 1.7c-1.8 0-3.2-1.5-3.2-3.2s1.5-3.2 3.2-3.2 3.2 1.5 3.2 3.2-1.4 3.2-3.2 3.2z"/></symbol><symbol viewBox="0 0 24 24" id="shoppicon-confirmation"><path d="M18 3l-2-1-2 1-2-1-2 1-2-1-2 1-2-1v20h16V2l-2 1zm0 17H6V5.2L8 4l2 1.2L12 4l2 1.2L16 4l2 1.2V20zm-7-5.8l-1.6-1.6L8 14l3 3 5-5-1.4-1.4z"/></symbol><symbol viewBox="0 0 24 24" id="shoppicon-coordinates-searching"><circle cx="12" cy="12" r="4"/><path d="M20.9 11c-.5-4.2-3.8-7.5-7.9-7.9V1h-2v2.1c-4.2.4-7.5 3.7-7.9 7.9H1v2h2.1c.5 4.2 3.8 7.5 7.9 7.9V23h2v-2.1c4.2-.5 7.5-3.8 7.9-7.9H23v-2h-2.1zM12 19c-3.9 0-7-3.1-7-7s3.1-7 7-7 7 3.1 7 7-3.1 7-7 7z"/></symbol><symbol viewBox="0 0 24 24" id="shoppicon-coordinates"><path d="M20.9 11c-.5-4.2-3.8-7.5-7.9-7.9V1h-2v2.1c-4.2.4-7.5 3.7-7.9 7.9H1v2h2.1c.5 4.2 3.8 7.5 7.9 7.9V23h2v-2.1c4.2-.5 7.5-3.8 7.9-7.9H23v-2h-2.1zM12 19c-3.9 0-7-3.1-7-7s3.1-7 7-7 7 3.1 7 7-3.1 7-7 7z"/></symbol><symbol viewBox="0 0 24 24" id="shoppicon-credit-card"><path d="M20 5H4c-1.1 0-2 .9-2 2v11c0 1.1.9 2 2 2h16c1.1 0 2-.9 2-2V7c0-1.1-.9-2-2-2zm0 13H4v-6h16v6zM4 9V7h16v2H4z"/></symbol><symbol viewBox="0 0 24 24" id="shoppicon-directions-bike"><path d="M16 4.8c1 0 1.8-.8 1.8-1.8S17 1.2 16 1.2 14.2 2 14.2 3 15 4.8 16 4.8zM5 12c-2.8 0-5 2.2-5 5s2.2 5 5 5 5-2.2 5-5-2.2-5-5-5zm0 8.5c-1.9 0-3.5-1.6-3.5-3.5s1.6-3.5 3.5-3.5 3.5 1.6 3.5 3.5-1.6 3.5-3.5 3.5zM14.8 10H19V8.2h-3.2l-1.9-3.3c-.3-.5-.8-.8-1.5-.8-.5 0-.9.2-1.2.5L7.5 8.3c-.3.3-.5.7-.5 1.2 0 .6.3 1.2.8 1.5l3.4 2v5H13v-6.5l-2.2-1.7 2.3-2.3 1.7 2.5zm4.2 2c-2.8 0-5 2.2-5 5s2.2 5 5 5 5-2.2 5-5-2.2-5-5-5zm0 8.5c-1.9 0-3.5-1.6-3.5-3.5s1.6-3.5 3.5-3.5 3.5 1.6 3.5 3.5-1.6 3.5-3.5 3.5z"/></symbol><symbol viewBox="0 0 24 24" id="shoppicon-directions-bus"><path d="M12 2c-4.4 0-8 .5-8 4v10c0 .9.4 1.7 1 2.2V20c0 .5.5 1 1 1h1c.5 0 1-.5 1-1v-1h8v1c0 .5.5 1 1 1h1c.5 0 1-.5 1-1v-1.8c.6-.5 1-1.3 1-2.2V6c0-3.5-3.6-4-8-4zM7.5 17c-.8 0-1.5-.7-1.5-1.5S6.7 14 7.5 14s1.5.7 1.5 1.5S8.3 17 7.5 17zm9 0c-.8 0-1.5-.7-1.5-1.5s.7-1.5 1.5-1.5 1.5.7 1.5 1.5-.7 1.5-1.5 1.5zm1.5-6H6V6h12v5z"/></symbol><symbol viewBox="0 0 24 24" id="shoppicon-directions-car"><path d="M18.9 6c-.2-.6-.8-1-1.4-1h-11c-.7 0-1.2.4-1.4 1L3 12v8c0 .5.5 1 1 1h1c.5 0 1-.5 1-1v-1h12v1c0 .5.5 1 1 1h1c.5 0 1-.5 1-1v-8l-2.1-6zM6.5 16c-.8 0-1.5-.7-1.5-1.5S5.7 13 6.5 13s1.5.7 1.5 1.5S7.3 16 6.5 16zm11 0c-.8 0-1.5-.7-1.5-1.5s.7-1.5 1.5-1.5 1.5.7 1.5 1.5-.7 1.5-1.5 1.5zM5 11l1.5-4.5h11L19 11H5z"/></symbol><symbol viewBox="0 0 24 24" id="shoppicon-directions-ferry"><path d="M4 19c1.6 0 3.1-.9 4-2 1 1.1 2.4 2 4 2s3-.9 4-2c1 1.1 2.4 2 4 2l1.9-6.7c.1-.3.1-.5-.1-.8s-.3-.4-.6-.5l-1.2-.4V6c0-1.1-.9-2-2-2h-3V1H9v3H6c-1.1 0-2 .9-2 2v4.6l-1.3.4c-.3.1-.5.3-.6.5s-.1.6-.1.8L4 19zM6 6h12v4l-6-2-6 2V6zm14 15c-1.4 0-2.8-.5-4-1.3-2.4 1.7-5.6 1.7-8 0-1.2.8-2.6 1.3-4 1.3H2v2h2c1.4 0 2.7-.4 4-1 2.5 1.3 5.5 1.3 8 0 1.3.6 2.6 1 4 1h2v-2h-2z"/></symbol><symbol viewBox="0 0 24 24" id="shoppicon-directions-subway"><path d="M12 2c-4.4 0-8 .5-8 4v9.5C4 17.4 5.6 19 7.5 19L6 20.5v.5h12v-.5L16.5 19c1.9 0 3.5-1.6 3.5-3.5V6c0-3.5-3.6-4-8-4zM7.5 17c-.8 0-1.5-.7-1.5-1.5S6.7 14 7.5 14s1.5.7 1.5 1.5S8.3 17 7.5 17zm3.5-6H6V6h5v5zm5.5 6c-.8 0-1.5-.7-1.5-1.5s.7-1.5 1.5-1.5 1.5.7 1.5 1.5-.7 1.5-1.5 1.5zm1.5-6h-5V6h5v5z"/></symbol><symbol viewBox="0 0 24 24" id="shoppicon-directions-train"><path d="M12 1c-4.4 0-8 .5-8 4v10.5C4 17.4 5.6 19 7.5 19L6 20.5v.5h12v-.5L16.5 19c1.9 0 3.5-1.6 3.5-3.5V5c0-3.5-3.6-4-8-4zm0 16c-1.1 0-2-.9-2-2s.9-2 2-2 2 .9 2 2-.9 2-2 2zm6-7H6V5h12v5z"/></symbol><symbol viewBox="0 0 24 24" id="shoppicon-directions-walk"><path d="M14 3.8c1 0 1.8-.8 1.8-1.8S15 .2 14 .2 12.2 1 12.2 2 13 3.8 14 3.8zm.1 6.2H19V8.2h-3.6l-2-3.3c-.3-.5-.9-.9-1.5-.9-.2 0-.3 0-.5.1L6 5.8V11h1.8V7.3l2.1-.7L6 22h1.8l2.9-8.1L13 17v5h1.8v-6.4L12.3 11l.7-2.8 1.1 1.8z"/></symbol><symbol viewBox="0 0 24 24" id="shoppicon-directions"><path d="M21.7 11.3l-9-9c-.4-.4-1-.4-1.4 0l-9 9c-.4.4-.4 1 0 1.4l9 9c.4.4 1 .4 1.4 0l9-9c.4-.4.4-1 0-1.4zM14 14.5V12h-4v3H8v-4c0-.6.4-1 1-1h5V7.5l3.5 3.5-3.5 3.5z"/></symbol><symbol viewBox="0 0 24 24" id="shoppicon-download"><path d="M19 10h-4V3H9v7H5l7 7zM5 19h14v2H5z"/></symbol><symbol viewBox="0 0 24 24" id="shoppicon-ellipsis-vertical"><circle cx="12" cy="12" r="2"/><circle cx="12" cy="5" r="2"/><circle cx="12" cy="19" r="2"/></symbol><symbol viewBox="0 0 24 24" id="shoppicon-ellipsis"><circle cx="12" cy="12" r="2"/><circle cx="5" cy="12" r="2"/><circle cx="19" cy="12" r="2"/></symbol><symbol viewBox="0 0 24 24" id="shoppicon-error-outline"><path d="M15 4.8L19.2 9v6L15 19.2H9L4.8 15V9L9 4.8h6m.8-2H8.2L2.8 8.2v7.7l5.4 5.4h7.7l5.4-5.4V8.2l-5.5-5.4zM11 15h2v2h-2zm0-8h2v6h-2z"/></symbol><symbol viewBox="0 0 24 24" id="shoppicon-error"><path d="M15.8 2.8H8.2L2.8 8.2v7.7l5.4 5.4h7.7l5.4-5.4V8.2l-5.5-5.4zM13 17h-2v-2h2v2zm0-4h-2V7h2v6z"/></symbol><symbol viewBox="0 0 24 24" id="shoppicon-file-outline"><path d="M14 2H6c-1.1 0-2 .9-2 2v16c0 1.1.9 2 2 2h12c1.1 0 2-.9 2-2V8l-6-6zm4 18H6V4h7v5h5v11z"/></symbol><symbol viewBox="0 0 24 24" id="shoppicon-file"><path d="M6 2c-1.1 0-2 .9-2 2v16c0 1.1.9 2 2 2h12c1.1 0 2-.9 2-2V8l-6-6H6zm7 7V3.5L18.5 9H13z"/></symbol><symbol viewBox="0 0 24 24" id="shoppicon-flag"><path d="M15.8 5.3C12.9 5.3 10.1 3 7.2 3c-.4 0-.8 0-1.2.1-.8.1-1.5.3-2 .5V21h2v-7.2c.4-.1.8-.1 1.2-.1 2.8 0 5.6 2.3 8.5 2.3s4.2-1.2 4.2-1.2V4.2c.1 0-1.3 1.1-4.1 1.1z"/></symbol><symbol viewBox="0 0 24 24" id="shoppicon-flight-left"><path d="M22 8h-1.5L19 10h-5.5L16 2h-2l-5 8H5c-1.7 0-3 .9-3 2s1.3 2 3 2h4l5 8h2l-2.5-8H19l1.5 2H22l-1-4 1-4z"/></symbol><symbol viewBox="0 0 24 24" id="shoppicon-flight-right"><path d="M19 10h-4l-5-8H8l2.5 8H5L3.5 8H2l1 4-1 4h1.5L5 14h5.5L8 22h2l5-8h4c1.7 0 3-.9 3-2s-1.3-2-3-2z"/></symbol><symbol viewBox="0 0 24 24" id="shoppicon-flight-up"><path d="M22 16v-2l-8-5V5c0-1.7-.9-3-2-3s-2 1.3-2 3v4l-8 5v2l8-2.5V19l-2 1.5V22l4-1 4 1v-1.5L14 19v-5.5l8 2.5z"/></symbol><symbol viewBox="0 0 24 24" id="shoppicon-forward"><path d="M21 12l-7-7v4C7 10 4 15 3 20c2.5-3.5 6-5.1 11-5.1V19l7-7z"/></symbol><symbol viewBox="0 0 24 24" id="shoppicon-gift"><path d="M3 19c0 1.1.9 2 2 2h6v-6H3v4zm10 2h6c1.1 0 2-.9 2-2v-4h-8v6zm6-14h-1.8c1.1-1.2 1-3-.1-4.1-1.2-1.2-3.1-1.2-4.2 0l-.9.9-.9-.9C9.9 1.7 8 1.7 6.9 2.9 5.7 4 5.7 5.8 6.8 7H5c-1.1 0-2 .9-2 2v4h8V7h2v6h8V9c0-1.1-.9-2-2-2zM8.3 4.3c.4-.4 1-.4 1.4 0 .4.4.4 1 0 1.4-.4.4-1 .4-1.4 0-.4-.4-.4-1 0-1.4zm6 0c.4-.4 1-.4 1.4 0 .4.4.4 1 0 1.4-.4.4-1 .4-1.4 0-.4-.4-.4-1 0-1.4z"/></symbol><symbol viewBox="0 0 24 24" id="shoppicon-globe"><path d="M12 2C6.5 2 2 6.5 2 12s4.5 10 10 10 10-4.5 10-10S17.5 2 12 2zm6.9 6h-3c-.3-1.2-.8-2.4-1.4-3.6 1.9.7 3.5 2 4.4 3.6zM12 4c.8 1.2 1.5 2.5 1.9 4h-3.8c.4-1.4 1.1-2.8 1.9-4zM4.3 14c-.2-.6-.3-1.3-.3-2s.1-1.4.3-2h3.4c-.1.7-.1 1.3-.1 2s.1 1.3.1 2H4.3zm.8 2h3c.3 1.2.8 2.5 1.4 3.6-1.9-.7-3.5-1.9-4.4-3.6zM8 8H5c1-1.7 2.5-2.9 4.3-3.6C8.8 5.6 8.4 6.8 8 8zm4 12c-.8-1.2-1.5-2.5-1.9-4h3.8c-.4 1.4-1.1 2.8-1.9 4zm2.3-6H9.7c-.1-.7-.2-1.3-.2-2s.1-1.4.2-2h4.7c.1.6.2 1.3.2 2s-.2 1.3-.3 2zm.3 5.6c.6-1.1 1.1-2.3 1.4-3.6h3c-1 1.7-2.6 2.9-4.4 3.6zm1.8-5.6c.1-.7.1-1.3.1-2s-.1-1.3-.1-2h3.4c.2.6.3 1.3.3 2s-.1 1.4-.3 2h-3.4z"/></symbol><symbol viewBox="0 0 24 24" id="shoppicon-heart-half"><path d="M8 4C5.1 4 3 6.1 3 8.8c0 3.3 3.1 6 7.7 10.1L12 20V6c-1-1.1-2.4-2-4-2z"/></symbol><symbol viewBox="0 0 24 24" id="shoppicon-heart-outline"><path d="M16 4c-1.6 0-3 .9-4 2-1-1.1-2.4-2-4-2-2.9 0-5 2.1-5 4.8 0 3.3 3.1 6 7.7 10.1L12 20l1.3-1.2C17.9 14.7 21 12 21 8.7 21 6.1 18.9 4 16 4zm-4 13.3c-4.2-3.7-7-6.2-7-8.5C5 7.1 6.2 6 8 6c.8 0 1.8.5 2.5 1.3l.6.7h1.8l.6-.7C14.2 6.5 15.2 6 16 6c1.8 0 3 1.1 3 2.8 0 2.4-2.8 4.8-7 8.5z"/></symbol><symbol viewBox="0 0 24 24" id="shoppicon-heart"><path d="M16 4c-1.6 0-3 .9-4 2-1-1.1-2.4-2-4-2-2.9 0-5 2.1-5 4.8 0 3.3 3.1 6 7.7 10.1L12 20l1.3-1.2C17.9 14.7 21 12 21 8.7 21 6.1 18.9 4 16 4z"/></symbol><symbol viewBox="0 0 24 24" id="shoppicon-help-outline"><path d="M12 2C6.5 2 2 6.5 2 12s4.5 10 10 10 10-4.5 10-10S17.5 2 12 2zm0 18c-4.4 0-8-3.6-8-8s3.6-8 8-8 8 3.6 8 8-3.6 8-8 8zm1-6.6c0-.8 1-1.1 1.7-1.7.8-.6 1.3-1.3 1.3-2.2.1-2-1.8-3.5-4-3.5S8 7.6 8 9.6h2c0-.8 1-1.6 2-1.6 1.1 0 2.1.6 2 1.5-.1.8-1 1.1-1.9 1.7-.7.5-1.1 1-1.1 2.1v.7h2v-.6zM11 16h2v2h-2z"/></symbol><symbol viewBox="0 0 24 24" id="shoppicon-help"><path d="M12 2C6.5 2 2 6.5 2 12s4.5 10 10 10 10-4.5 10-10S17.5 2 12 2zm1 16h-2v-2h2v2zm1.7-6.3c-.7.6-1.7.9-1.7 1.7v.6h-2v-.7c0-1.1.5-1.6 1.1-2.1.8-.6 1.8-.9 1.9-1.7.1-.9-.9-1.5-2-1.5-1 0-2 .8-2 1.6H8C8 7.6 9.8 6 12 6s4.1 1.5 4 3.5c0 1-.5 1.6-1.3 2.2z"/></symbol><symbol viewBox="0 0 24 24" id="shoppicon-home"><path d="M12 4L2 13h3v7h5v-6h4v6h5v-7h3z"/></symbol><symbol viewBox="0 0 24 24" id="shoppicon-info-outline"><path d="M11 7h2v2h-2zm0 4h2v6h-2zm1-9C6.5 2 2 6.5 2 12s4.5 10 10 10 10-4.5 10-10S17.5 2 12 2zm0 18c-4.4 0-8-3.6-8-8s3.6-8 8-8 8 3.6 8 8-3.6 8-8 8z"/></symbol><symbol viewBox="0 0 24 24" id="shoppicon-info"><path d="M12 2C6.5 2 2 6.5 2 12s4.5 10 10 10 10-4.5 10-10S17.5 2 12 2zm1 15h-2v-6h2v6zm0-8h-2V7h2v2z"/></symbol><symbol viewBox="0 0 24 24" id="shoppicon-location"><path d="M12 2C8.1 2 5 5.1 5 9c0 5.2 7 13 7 13s7-7.8 7-13c0-3.9-3.1-7-7-7zm0 9.5c-1.4 0-2.5-1.1-2.5-2.5s1.1-2.5 2.5-2.5 2.5 1.1 2.5 2.5-1.1 2.5-2.5 2.5z"/></symbol><symbol viewBox="0 0 24 24" id="shoppicon-lock-open-alt"><path d="M18 10H9.3V5.7C9.3 4.2 10.5 3 12 3c1.5 0 2.7 1.2 2.7 2.7V7h2V5.7C16.7 3.1 14.6 1 12 1S7.3 3.1 7.3 5.7V10H6c-1.1 0-2 .9-2 2v8c0 1.1.9 2 2 2h12c1.1 0 2-.9 2-2v-8c0-1.1-.9-2-2-2zm-6 8c-1.1 0-2-.9-2-2s.9-2 2-2 2 .9 2 2-.9 2-2 2z"/></symbol><symbol viewBox="0 0 24 24" id="shoppicon-lock-open"><path d="M19.4 2c-2.6 0-4.7 2.1-4.7 4.7V10H6c-1.1 0-2 .9-2 2v8c0 1.1.9 2 2 2h12c1.1 0 2-.9 2-2v-8c0-1.1-.9-2-2-2h-1.3V6.7c0-1.5 1.2-2.7 2.7-2.7 1.5 0 2.7 1.2 2.7 2.7V11h2V6.7C24.1 4.1 22 2 19.4 2zM12 18c-1.1 0-2-.9-2-2s.9-2 2-2 2 .9 2 2-.9 2-2 2z"/></symbol><symbol viewBox="0 0 24 24" id="shoppicon-lock"><path d="M18 10h-1.3V7.7C16.7 5.1 14.6 3 12 3S7.3 5.1 7.3 7.7V10H6c-1.1 0-2 .9-2 2v8c0 1.1.9 2 2 2h12c1.1 0 2-.9 2-2v-8c0-1.1-.9-2-2-2zM9.3 7.7C9.3 6.2 10.5 5 12 5c1.5 0 2.7 1.2 2.7 2.7V10H9.3V7.7zM10 16c0-1.1.9-2 2-2s2 .9 2 2-.9 2-2 2-2-.9-2-2z"/></symbol><symbol viewBox="0 0 24 24" id="shoppicon-log-in"><path d="M7.8 16.2L12 12 7.8 7.8 6.3 9.2 8.2 11H3v2h5.2l-1.9 1.8zM7 4v2h11l-4 2v10H7v2h7v4l6-4V4z"/></symbol><symbol viewBox="0 0 24 24" id="shoppicon-log-out"><path d="M10 8L6 6h11V4H4v16l6 4v-4h7v-2h-7zm6.8-.2l-1.5 1.4 1.9 1.8H12v2h5.2l-1.9 1.8 1.5 1.4L21 12z"/></symbol><symbol viewBox="0 0 24 24" id="shoppicon-mail-outline-read"><path d="M22 6L12 0 2 6c-.6.4-1 1-1 1.7V17c0 1.1.9 2 2 2h18c1.1 0 2-.9 2-2V7.7c0-.7-.4-1.3-1-1.7zm-1 11H3V8.6l9 5.4 9-5.4V17z"/></symbol><symbol viewBox="0 0 24 24" id="shoppicon-mail-outline"><path d="M21 5H3c-1.1 0-2 .9-2 2v10c0 1.1.9 2 2 2h18c1.1 0 2-.9 2-2V7c0-1.1-.9-2-2-2zm-.7 2L12 12 3.7 7h16.6zM3 17V8.6l9 5.4 9-5.4V17H3z"/></symbol><symbol viewBox="0 0 24 24" id="shoppicon-mail-read"><path d="M22 6L12 0 2 6c-.6.4-1 1-1 1.7V17c0 1.1.9 2 2 2h18c1.1 0 2-.9 2-2V7.7c0-.7-.4-1.3-1-1.7zm-10 6.8L3 7.4 12 2l9 5.4-9 5.4z"/></symbol><symbol viewBox="0 0 24 24" id="shoppicon-mail"><path d="M22.5 5.7c-.4-.4-.9-.7-1.5-.7H3c-.6 0-1.1.3-1.5.7L12 12l10.5-6.3zM12 14L1 7.4V17c0 1.1.9 2 2 2h18c1.1 0 2-.9 2-2V7.4L12 14z"/></symbol><symbol viewBox="0 0 24 24" id="shoppicon-map"><path d="M15 5.1L9 3 3 5v16l6-2.1 6 2.1 6-2V3l-6 2.1zM15 19l-6-2.1V5l6 2.1V19z"/></symbol><symbol viewBox="0 0 24 24" id="shoppicon-menu"><path d="M2 5h20v2H2zm0 12h20v2H2zm0-6h20v2H2z"/></symbol><symbol viewBox="0 0 24 24" id="shoppicon-minus-circle-outline"><path d="M12 2C6.5 2 2 6.5 2 12s4.5 10 10 10 10-4.5 10-10S17.5 2 12 2zm0 18c-4.4 0-8-3.6-8-8s3.6-8 8-8 8 3.6 8 8-3.6 8-8 8zm-5-9h10v2H7z"/></symbol><symbol viewBox="0 0 24 24" id="shoppicon-minus-circle"><path d="M12 2C6.5 2 2 6.5 2 12s4.5 10 10 10 10-4.5 10-10S17.5 2 12 2zm5 11H7v-2h10v2z"/></symbol><symbol viewBox="0 0 24 24" id="shoppicon-minus-small"><path d="M7 11h10v2H7z"/></symbol><symbol viewBox="0 0 24 24" id="shoppicon-minus"><path d="M5 11h14v2H5z"/></symbol><symbol viewBox="0 0 24 24" id="shoppicon-package"><path d="M19 3h-5v5h-4V3H5c-1.1 0-2 .9-2 2v14c0 1.1.9 2 2 2h14c1.1 0 2-.9 2-2V5c0-1.1-.9-2-2-2zm-6 13h-1v3h-2v-3H9v-1l2-2 2 2v1zm6 0h-1v3h-2v-3h-1v-1l2-2 2 2v1z"/></symbol><symbol viewBox="0 0 24 24" id="shoppicon-person-circle-outline"><path d="M22 12c0-5.5-4.5-10-10-10S2 6.5 2 12s4.5 10 10 10 10-4.5 10-10zM4 12c0-4.4 3.6-8 8-8s8 3.6 8 8c0 2.1-.8 3.9-2.1 5.4-.1-.4-.2-.9-.6-1.4-.8-1.2-3.5-2-5.3-2-1.8 0-4.5.8-5.3 2-.3.5-.5 1-.6 1.4C4.8 15.9 4 14.1 4 12z"/><circle cx="12" cy="9.3" r="3.3"/></symbol><symbol viewBox="0 0 24 24" id="shoppicon-person"><circle cx="12" cy="8" r="5"/><path d="M20 18c-1.2-1.8-5.3-3-8-3s-6.8 1.2-8 3c-1.1 1.5-1 3-1 3h18s.1-1.5-1-3z"/></symbol><symbol viewBox="0 0 24 24" id="shoppicon-phone"><path d="M15.8 3.7l-1.6 4.7c-.1.4 0 .8.2 1L16 11s-1.1 1.5-2.3 2.7S11 16 11 16l-1.6-1.6c-.3-.3-.7-.4-1-.2l-4.7 1.6c-.4.1-.7.5-.7.9V20c0 .6.5 1 1 1 9.2-.5 16.5-7.8 17-17 0-.6-.4-1-1-1h-3c-.7 0-1.1.3-1.2.7z"/></symbol><symbol viewBox="0 0 24 24" id="shoppicon-picture-group"><path d="M19 3H9c-1.1 0-2 .9-2 2v10c0 1.1.9 2 2 2h10c1.1 0 2-.9 2-2V5c0-1.1-.9-2-2-2zm-8.5 2c.8 0 1.5.7 1.5 1.5S11.3 8 10.5 8 9 7.3 9 6.5 9.7 5 10.5 5zM19 15H9l3-3 2 1 3-3 2 2v3zM5 19V7c-1.1 0-2 .9-2 2v10c0 1.1.9 2 2 2h10c1.1 0 2-.9 2-2H5z"/></symbol><symbol viewBox="0 0 24 24" id="shoppicon-picture"><path d="M19.2 3H4.8C3.8 3 3 4 3 5.3v13.5C3 20 3.8 21 4.8 21h14.4c1 0 1.8-1 1.8-2.2V5.3C21 4 20.2 3 19.2 3zM8 6c1.1 0 2 .9 2 2s-.9 2-2 2-2-.9-2-2 .9-2 2-2zm11 13H5l4-4 2 2 5-5 3 3v4z"/></symbol><symbol viewBox="0 0 24 24" id="shoppicon-plus-circle"><path d="M12 2C6.5 2 2 6.5 2 12s4.5 10 10 10 10-4.5 10-10S17.5 2 12 2zm5 11h-4v4h-2v-4H7v-2h4V7h2v4h4v2z"/></symbol><symbol viewBox="0 0 24 24" id="shoppicon-plus-cricle-outline"><path d="M12 2C6.5 2 2 6.5 2 12s4.5 10 10 10 10-4.5 10-10S17.5 2 12 2zm0 18c-4.4 0-8-3.6-8-8s3.6-8 8-8 8 3.6 8 8-3.6 8-8 8zm1-13h-2v4H7v2h4v4h2v-4h4v-2h-4z"/></symbol><symbol viewBox="0 0 24 24" id="shoppicon-plus-small"><path d="M13 11V7h-2v4H7v2h4v4h2v-4h4v-2z"/></symbol><symbol viewBox="0 0 24 24" id="shoppicon-plus"><path d="M19 11h-6V5h-2v6H5v2h6v6h2v-6h6z"/></symbol><symbol viewBox="0 0 24 24" id="shoppicon-reply"><path d="M10 9V5l-7 7 7 7v-4.1c5 0 8.5 1.6 11 5.1-1-5-4-10-11-11z"/></symbol><symbol viewBox="0 0 24 24" id="shoppicon-reward"><path d="M18 3V2H6v1H2v5c0 2.3 2.2 4.8 5.7 5 .9 1 2 1.7 3.3 1.9v5.2c-1.5.2-2.9.9-4 1.9h10c-1.1-1-2.5-1.7-4-1.9v-5.2c1.3-.2 2.5-.9 3.3-1.9 3.5-.2 5.7-2.7 5.7-5V3h-4zM4 8V5h2v3.5c0 .8.1 1.5.4 2.2C4.9 10.2 4 9.1 4 8zm8 2c-1.1 0-2-.9-2-2s.9-2 2-2 2 .9 2 2-.9 2-2 2zm8-2c0 1.1-.9 2.2-2.4 2.7.3-.7.4-1.4.4-2.2V5h2v3z"/></symbol><symbol viewBox="0 0 24 24" id="shoppicon-search"><path d="M21 19.6l-5.4-5.4C16.5 13 17 11.6 17 10c0-3.9-3.1-7-7-7s-7 3.1-7 7 3.1 7 7 7c1.6 0 3-.5 4.2-1.4l5.4 5.4 1.4-1.4zM10 15c-2.8 0-5-2.2-5-5s2.2-5 5-5 5 2.2 5 5-2.2 5-5 5z"/></symbol><symbol viewBox="0 0 24 24" id="shoppicon-share-android"><path d="M18 16.1c-.8 0-1.4.3-2 .8l-7.1-4.1c.1-.3.1-.6.1-.8s0-.5-.1-.7L16 7.2c.5.5 1.2.8 2 .8 1.7 0 3-1.3 3-3s-1.3-3-3-3-3 1.3-3 3c0 .2 0 .5.1.7L8 9.8C7.5 9.3 6.8 9 6 9c-1.7 0-3 1.3-3 3s1.3 3 3 3c.8 0 1.5-.3 2-.8l7.1 4.2c0 .2-.1.4-.1.7 0 1.6 1.3 2.9 2.9 2.9s2.9-1.3 2.9-2.9-1.2-3-2.8-3z"/></symbol><symbol viewBox="0 0 24 24" id="shoppicon-share-ios"><path d="M11 3.8V15h2V3.8l2.6 2.6L17 5l-5-5-5 5 1.4 1.4zM18 8h-3v2h3v8H6v-8h3V8H6c-1.1 0-2 .9-2 2v8c0 1.1.9 2 2 2h12c1.1 0 2-.9 2-2v-8c0-1.1-.9-2-2-2z"/></symbol><symbol viewBox="0 0 24 24" id="shoppicon-shipping"><path d="M20 8h-3V4H3c-1.1 0-2 .9-2 2v11h2c0 1.7 1.3 3 3 3s3-1.3 3-3h6c0 1.7 1.3 3 3 3s3-1.3 3-3h2v-5l-3-4zM6 18.5c-.8 0-1.5-.7-1.5-1.5s.7-1.5 1.5-1.5 1.5.7 1.5 1.5-.7 1.5-1.5 1.5zm12 0c-.8 0-1.5-.7-1.5-1.5s.7-1.5 1.5-1.5 1.5.7 1.5 1.5-.7 1.5-1.5 1.5zM17 12V9.5h2.5l2 2.5H17z"/></symbol><symbol viewBox="0 0 24 24" id="shoppicon-star-half"><path d="M9.4 8.4l-6.9.5 5.2 4.5-1.6 6.7 5.9-3.6V2z"/></symbol><symbol viewBox="0 0 24 24" id="shoppicon-star-outline"><path d="M21.5 8.9l-6.9-.6L12 2 9.4 8.4l-6.9.5 5.2 4.5-1.6 6.7 5.9-3.6 5.9 3.6-1.6-6.7 5.2-4.5zM12 14.4l-3.2 2 .9-3.6-2.8-2.4 3.7-.3L12 6.6l1.4 3.5 3.7.3-2.8 2.4.9 3.6-3.2-2z"/></symbol><symbol viewBox="0 0 24 24" id="shoppicon-star"><path d="M12 2l2.6 6.4 6.9.5-5.2 4.5 1.6 6.7-5.9-3.6-5.9 3.6 1.6-6.7-5.2-4.5 6.9-.5z"/></symbol><symbol viewBox="0 0 24 24" id="shoppicon-store"><path d="M20 7H4l-1 5v2h1v6h10v-6h4v6h2v-6h1v-2l-1-5zm-8 11H6v-4h6v4zM4 4h16v2H4z"/></symbol><symbol viewBox="0 0 24 24" id="shoppicon-tag"><path d="M12.4 20.4c.8.8 2 .8 2.8 0l5.2-5.2c.8-.8.8-2 0-2.8L11 3H5c-1.1 0-2 .9-2 2v6l9.4 9.4zM7.5 6C8.3 6 9 6.7 9 7.5S8.3 9 7.5 9 6 8.3 6 7.5 6.7 6 7.5 6z"/></symbol><symbol viewBox="0 0 24 24" id="shoppicon-upload"><path d="M9 17h6v-7h4l-7-7-7 7h4zm-4 2h14v2H5z"/></symbol><symbol viewBox="0 0 24 24" id="shoppicon-video-camera"><path d="M17 10V8c0-1.1-.9-2-2-2H4c-1.1 0-2 .9-2 2v8c0 1.1.9 2 2 2h11c1.1 0 2-.9 2-2v-2l5 3V7l-5 3z"/></symbol><symbol viewBox="0 0 24 24" id="shoppicon-video-play"><path d="M20 4H4c-1.1 0-2 .9-2 2v12c0 1.1.9 2 2 2h16c1.1 0 2-.9 2-2V6c0-1.1-.9-2-2-2zM9 17V7l8 5-8 5z"/></symbol><symbol viewBox="0 0 24 24" id="shoppicon-warning"><path d="M20.9 19.6l-8-16c-.4-.7-1.4-.7-1.8 0l-8 16c-.3.6.2 1.4.9 1.4h16c.7 0 1.2-.8.9-1.4zM13 19h-2v-2h2v2zm0-4h-2V9h2v6z"/></symbol><symbol viewBox="0 0 24 24" id="shoppicon-wish-list"><path d="M14 2l2.1 5.1 5.5.4-4.2 3.6 1.3 5.4-4.7-2.9-4.7 2.9 1.3-5.4-4.2-3.6 5.5-.4zM2.3 20.3l1.4 1.4L7.4 18l.9-3.7zM1.6 15L3 16.4l5.3-5.3-1.5-1.3zM12 16.6L7.6 21 9 22.4l6.3-6.3-1.3-.7z"/></symbol><symbol viewBox="0 0 24 24" id="shoppicon-x-circle-outline"><path d="M12 2C6.5 2 2 6.5 2 12s4.5 10 10 10 10-4.5 10-10S17.5 2 12 2zm0 18c-4.4 0-8-3.6-8-8s3.6-8 8-8 8 3.6 8 8-3.6 8-8 8zm3.6-13L12 10.6 8.4 7 7 8.4l3.6 3.6L7 15.6 8.4 17l3.6-3.6 3.6 3.6 1.4-1.4-3.6-3.6L17 8.4z"/></symbol><symbol viewBox="0 0 24 24" id="shoppicon-x-circle"><path d="M12 2C6.5 2 2 6.5 2 12s4.5 10 10 10 10-4.5 10-10S17.5 2 12 2zm5 13.6L15.6 17 12 13.4 8.4 17 7 15.6l3.6-3.6L7 8.4 8.4 7l3.6 3.6L15.6 7 17 8.4 13.4 12l3.6 3.6z"/></symbol><symbol viewBox="0 0 24 24" id="shoppicon-x-large"><path d="M20 5.4L18.6 4 12 10.6 5.4 4 4 5.4l6.6 6.6L4 18.6 5.4 20l6.6-6.6 6.6 6.6 1.4-1.4-6.6-6.6z"/></symbol><symbol viewBox="0 0 24 24" id="shoppicon-x-small"><path d="M17 8.4L15.6 7 12 10.6 8.4 7 7 8.4l3.6 3.6L7 15.6 8.4 17l3.6-3.6 3.6 3.6 1.4-1.4-3.6-3.6z"/></symbol><symbol viewBox="0 0 24 24" id="shoppicon-x"><path d="M18 16.6L13.4 12 18 7.4 16.6 6 12 10.6 7.4 6 6 7.4l4.6 4.6L6 16.6 7.4 18l4.6-4.6 4.6 4.6z"/></symbol><symbol viewBox="0 0 24 24" id="shoppicon-zoom-in"><path d="M13 7h-2v4H7v2h4v4h2v-4h4v-2h-4zm-1-5C6.5 2 2 6.5 2 12s4.5 10 10 10h8c1.1 0 2-.9 2-2v-8c0-5.5-4.5-10-10-10zm0 18c-4.4 0-8-3.6-8-8s3.6-8 8-8 8 3.6 8 8-3.6 8-8 8z"/></symbol><symbol viewBox="0 0 24 24" id="shoppicon-zoom-out"><path d="M7 11h10v2H7zm5-9C6.5 2 2 6.5 2 12s4.5 10 10 10h8c1.1 0 2-.9 2-2v-8c0-5.5-4.5-10-10-10zm0 18c-4.4 0-8-3.6-8-8s3.6-8 8-8 8 3.6 8 8-3.6 8-8 8z"/></symbol></svg>