<svg xmlns="http://www.w3.org/2000/svg"><symbol viewBox="0 0 24 24" id="chevron-circle-right"><path d="M22 12c0-5.5-4.5-10-10-10S2 6.5 2 12s4.5 10 10 10 10-4.5 10-10zM9.587 15.59l3.59-3.59-3.58-3.58 1.414-1.414 4.99 4.99-.005.004.005.005-5 5-1.413-1.415z"/></symbol><symbol viewBox="0 0 24 24" id="chevron-down"><path d="M16.596 8.58l-4.59 4.592-4.592-4.59L6 9.994 12.005 16l6.005-6.005z"/></symbol><symbol viewBox="0 0 24 24" id="chevron-up"><path d="M18 14.005L11.995 8 5.99 14.005l1.414 1.414 4.59-4.592 4.592 4.59z"/></symbol></svg>