<svg xmlns="http://www.w3.org/2000/svg"><symbol viewBox="0 0 24 24" id="chevron-circle-right"><path d="M22 12c0-5.5-4.5-10-10-10S2 6.5 2 12s4.5 10 10 10 10-4.5 10-10zM9.587 15.59l3.59-3.59-3.58-3.58 1.414-1.414 4.99 4.99-.004.004.005.005-5 5L9.59 15.59z"/></symbol><symbol viewBox="0 0 24 24" id="chevron-down"><path d="M16.596 8.58l-4.59 4.592-4.592-4.59L6 9.994 12.005 16l6.005-6.005z"/></symbol><symbol viewBox="0 0 24 24" id="chevron-up"><path d="M18 14.005L11.995 8 5.99 14.005l1.414 1.414 4.59-4.593 4.592 4.59z"/></symbol><symbol viewBox="0 0 24 24" id="menu"><path d="M2 5h20v2H2zm0 12h20v2H2zm0-6h20v2H2z"/></symbol><symbol viewBox="0 0 24 24" id="search"><path d="M21 19.6l-5.4-5.4C16.5 13 17 11.6 17 10c0-3.9-3.1-7-7-7s-7 3.1-7 7 3.1 7 7 7c1.6 0 3-.5 4.2-1.4l5.4 5.4 1.4-1.4zM10 15c-2.8 0-5-2.2-5-5s2.2-5 5-5 5 2.2 5 5-2.2 5-5 5z"/></symbol></svg>