<svg xmlns="http://www.w3.org/2000/svg"><symbol viewBox="0 0 24 24" id="chevron-circle-down"><path d="M12 22c5.5 0 10-4.5 10-10S17.5 2 12 2 2 6.5 2 12s4.5 10 10 10zM8.41 9.587l3.59 3.59 3.58-3.58 1.414 1.414-4.99 4.99-.004-.004-.005.005-5-5L8.41 9.59z"/></symbol><symbol viewBox="0 0 24 24" id="chevron-circle-left"><path d="M2 12c0 5.5 4.5 10 10 10s10-4.5 10-10S17.5 2 12 2 2 6.5 2 12zm12.413-3.59L10.823 12l3.58 3.58-1.414 1.414L8 12.004 8.005 12 8 11.995l5-5 1.413 1.415z"/></symbol><symbol viewBox="0 0 24 24" id="chevron-circle-outline-down"><path d="M12 2C6.5 2 2 6.5 2 12s4.5 10 10 10 10-4.5 10-10S17.5 2 12 2zm0 18c-4.41 0-8-3.59-8-8s3.59-8 8-8 8 3.59 8 8-3.59 8-8 8zm0-6.823l-3.59-3.59L6.996 11l5 5 .004-.005.005.005 4.99-4.99-1.415-1.414z"/></symbol><symbol viewBox="0 0 24 24" id="chevron-circle-outline-left"><path d="M12 2C6.5 2 2 6.5 2 12s4.5 10 10 10 10-4.5 10-10S17.5 2 12 2zm0 18c-4.41 0-8-3.59-8-8s3.59-8 8-8 8 3.59 8 8-3.588 8-8 8zm1-13.004l-5 5 .005.004-.005.005 4.99 4.99 1.414-1.415-3.58-3.58 3.59-3.59z"/></symbol><symbol viewBox="0 0 24 24" id="chevron-circle-outline-right"><path d="M12 2C6.5 2 2 6.5 2 12s4.5 10 10 10 10-4.5 10-10S17.5 2 12 2zm0 18c-4.41 0-8-3.59-8-8s3.59-8 8-8 8 3.59 8 8-3.59 8-8 8zm-.99-12.995L9.596 8.42l3.58 3.58-3.59 3.59L11 17.004l5-5-.004-.004.005-.005z"/></symbol><symbol viewBox="0 0 24 24" id="chevron-circle-outline-up"><path d="M12 4c4.41 0 8 3.59 8 8 0 2.126-.835 4.132-2.352 5.648C16.13 19.165 14.125 20 12 20c-4.41 0-8-3.59-8-8s3.588-8 8-8m0-2C6.5 2 2 6.5 2 12s4.5 10 10 10 10-4.5 10-10S17.5 2 12 2zm5.003 11l-5-5-.003.005L11.995 8l-4.99 4.99 1.414 1.414 3.58-3.58 3.59 3.59z"/></symbol><symbol viewBox="0 0 24 24" id="chevron-circle-right"><path d="M22 12c0-5.5-4.5-10-10-10S2 6.5 2 12s4.5 10 10 10 10-4.5 10-10zM9.587 15.59l3.59-3.59-3.58-3.58 1.414-1.414 4.99 4.99-.004.004.005.005-5 5L9.59 15.59z"/></symbol><symbol viewBox="0 0 24 24" id="chevron-circle-up"><path d="M12 2C6.5 2 2 6.5 2 12s4.5 10 10 10 10-4.5 10-10S17.5 2 12 2zm3.59 12.413L12 10.823l-3.58 3.58-1.415-1.413L11.995 8l.005.005.004-.005 5 5-1.415 1.413z"/></symbol><symbol viewBox="0 0 24 24" id="chevron-collapse-horizontal"><path d="M4 8.83L7.17 12 4 15.17l1.41 1.41L10 12 5.41 7.41zm16 0l-1.41-1.42L14 12l4.59 4.59L20 15.17 16.83 12z"/></symbol><symbol viewBox="0 0 24 24" id="chevron-collapse-vertical"><path d="M16.59 5.41L15.17 4 12 7.17 8.83 4 7.41 5.41 12 10zM7.41 18.59L8.83 20 12 16.83 15.17 20l1.41-1.41L12 14z"/></symbol><symbol viewBox="0 0 24 24" id="chevron-double-left"><path d="M18.42 7.414L17.004 6 11 12.005l6.005 6.005 1.414-1.414-4.593-4.59zm-6 0L11.004 6 5 12.005l6.005 6.005 1.414-1.414-4.593-4.59z"/></symbol><symbol viewBox="0 0 24 24" id="chevron-double-right"><path d="M6.995 5.99L5.58 7.404l4.592 4.59-4.59 4.592L6.994 18 13 11.995zm6 0L11.58 7.404l4.592 4.59-4.59 4.592L12.994 18 19 11.995z"/></symbol><symbol viewBox="0 0 24 24" id="chevron-down"><path d="M16.596 8.58l-4.59 4.592-4.592-4.59L6 9.994 12.005 16l6.005-6.005z"/></symbol><symbol viewBox="0 0 24 24" id="chevron-expand-horizontal"><path d="M7.59 7.42L3 12l4.59 4.59L9 15.17 5.83 12 9 8.83zm8.82-.01L15 8.83 18.17 12 15 15.17l1.41 1.41L21 12z"/></symbol><symbol viewBox="0 0 24 24" id="chevron-expand-vertical"><path d="M12 5.83L15.17 9l1.41-1.41L12 3 7.41 7.59 8.83 9zM15.17 15L12 18.17 8.83 15l-1.41 1.41L12 21l4.59-4.59z"/></symbol><symbol viewBox="0 0 24 24" id="chevron-left"><path d="M15.42 7.414L14.004 6 8 12.005l6.005 6.005 1.414-1.414-4.593-4.59z"/></symbol><symbol viewBox="0 0 24 24" id="chevron-right"><path d="M16 11.995L9.995 5.99 8.58 7.404l4.592 4.59-4.59 4.592L9.994 18z"/></symbol><symbol viewBox="0 0 24 24" id="chevron-up"><path d="M18 14.005L11.995 8 5.99 14.005l1.414 1.414 4.59-4.593 4.592 4.59z"/></symbol></svg>