<?xml version="1.0" encoding="utf-8"?>
<!-- Generator: Adobe Illustrator 18.1.0, SVG Export Plug-In . SVG Version: 6.00 Build 0)  -->
<!DOCTYPE svg PUBLIC "-//W3C//DTD SVG 1.1//EN" "http://www.w3.org/Graphics/SVG/1.1/DTD/svg11.dtd">
<svg version="1.1" xmlns="http://www.w3.org/2000/svg" xmlns:xlink="http://www.w3.org/1999/xlink" x="0px" y="0px"
	 viewBox="0 0 24 24" enable-background="new 0 0 24 24" xml:space="preserve">
<g id="bg">
</g>
<g id="guides">
</g>
<g id="frames">
</g>
<g id="keylines">
</g>
<g id="src">
</g>
<g id="Layer_8">
</g>
<g id="Layer_9">
	<g>
		<path d="M12,2C6.5,2,2,6.5,2,12s4.5,10,10,10c5.5,0,10-4.5,10-10S17.5,2,12,2z M12,20c-4.411,0-8-3.589-8-8s3.589-8,8-8
			c4.411,0,8,3.589,8,8S16.411,20,12,20z"/>
		<polygon points="12,13.177 8.41,9.587 6.996,11.001 11.995,16 12,15.995 12.005,16 16.994,11.01 15.58,9.596 		"/>
	</g>
</g>
<g id="Layer_10">
</g>
<g id="Layer_11">
</g>
<g id="Layer_12">
</g>
<g id="Layer_13">
</g>
<g id="Layer_14">
</g>
<g id="Layer_15">
</g>
<g id="Layer_16">
</g>
<g id="Layer_17">
</g>
<g id="Layer_18">
</g>
<g id="Layer_19">
</g>
<g id="Layer_20">
</g>
<g id="Layer_21">
</g>
<g id="Layer_22">
</g>
<g id="Layer_23">
</g>
<g id="Layer_24">
</g>
<g id="Layer_25">
</g>
</svg>
